<svg width="820" height="554" viewBox="0 0 820 554" fill="none" xmlns="http://www.w3.org/2000/svg">
<rect width="820" height="554" rx="15" fill="#41837F"/>
<mask id="mask0_4_45" style="mask-type:alpha" maskUnits="userSpaceOnUse" x="0" y="0" width="820" height="554">
<rect width="820" height="554" rx="15" fill="#4FD1C5"/>
</mask>
<g mask="url(#mask0_4_45)">
<g opacity="0.2">
<path d="M1496.56 553.183C1496.56 873.701 1197.51 1133.65 828.463 1133.65C459.413 1133.65 160.362 873.701 160.362 553.183C160.362 232.665 459.413 -27.2817 828.463 -27.2817C1197.51 -27.2817 1496.56 232.665 1496.56 553.183Z" stroke="white"/>
<path d="M1406.17 553.183C1406.17 830.322 1147.59 1055.1 828.463 1055.1C509.336 1055.1 250.756 830.322 250.756 553.183C250.756 276.044 509.336 51.2637 828.463 51.2637C1147.59 51.2637 1406.17 276.044 1406.17 553.183Z" stroke="white"/>
<path d="M1303.31 553.183C1303.31 780.959 1090.78 965.723 828.464 965.723C566.145 965.723 353.618 780.959 353.618 553.183C353.618 325.407 566.145 140.643 828.464 140.643C1090.78 140.643 1303.31 325.407 1303.31 553.183Z" stroke="white"/>
<path d="M1200.45 553.183C1200.45 731.596 1033.97 876.344 828.464 876.344C622.954 876.344 456.48 731.596 456.48 553.183C456.48 374.77 622.954 230.022 828.464 230.022C1033.97 230.022 1200.45 374.77 1200.45 553.183Z" stroke="white"/>
<path d="M1100.7 553.183C1100.7 683.729 978.885 789.673 828.463 789.673C678.041 789.673 556.223 683.729 556.223 553.183C556.223 422.637 678.041 316.693 828.463 316.693C978.885 316.693 1100.7 422.637 1100.7 553.183Z" stroke="white"/>
<path d="M1010.31 553.183C1010.31 640.35 928.963 711.128 828.464 711.128C727.965 711.128 646.618 640.35 646.618 553.183C646.618 466.016 727.965 395.238 828.464 395.238C928.963 395.238 1010.31 466.016 1010.31 553.183Z" stroke="white"/>
<path d="M937.987 553.183C937.987 605.642 889.02 648.285 828.464 648.285C767.907 648.285 718.941 605.642 718.941 553.183C718.941 500.723 767.907 458.081 828.464 458.081C889.02 458.081 937.987 500.723 937.987 553.183Z" stroke="white"/>
</g>
</g>
</svg>
