<svg width="1008" height="929" viewBox="0 0 1008 929" fill="none" xmlns="http://www.w3.org/2000/svg">
<path d="M0 -91.436H1008V928.258H29.2343C13.0887 928.258 0 915.169 0 899.023V-91.436Z" fill="url(#paint0_linear_62_337)"/>
<mask id="mask0_62_337" style="mask-type:alpha" maskUnits="userSpaceOnUse" x="0" y="-92" width="1008" height="1021">
<path d="M0 -91.436H1008V928.258H29.2343C13.0887 928.258 0 915.169 0 899.023V-91.436Z" fill="#5CE1CA"/>
</mask>
<g mask="url(#mask0_62_337)">
<g opacity="0.2">
<path d="M1430.57 741.183C1430.57 1061.7 1131.51 1321.65 762.464 1321.65C393.414 1321.65 94.3633 1061.7 94.3633 741.183C94.3633 420.665 393.414 160.718 762.464 160.718C1131.51 160.718 1430.57 420.665 1430.57 741.183Z" stroke="white"/>
<path d="M1340.17 741.183C1340.17 1018.32 1081.59 1243.1 762.464 1243.1C443.337 1243.1 184.757 1018.32 184.757 741.183C184.757 464.044 443.337 239.264 762.464 239.264C1081.59 239.264 1340.17 464.044 1340.17 741.183Z" stroke="white"/>
<path d="M1237.31 741.183C1237.31 968.959 1024.78 1153.72 762.464 1153.72C500.146 1153.72 287.619 968.959 287.619 741.183C287.619 513.407 500.146 328.643 762.464 328.643C1024.78 328.643 1237.31 513.407 1237.31 741.183Z" stroke="white"/>
<path d="M1134.45 741.183C1134.45 919.596 967.974 1064.34 762.465 1064.34C556.955 1064.34 390.481 919.596 390.481 741.183C390.481 562.77 556.955 418.022 762.465 418.022C967.974 418.022 1134.45 562.77 1134.45 741.183Z" stroke="white"/>
<path d="M1034.7 741.183C1034.7 871.729 912.885 977.673 762.464 977.673C612.042 977.673 490.224 871.729 490.224 741.183C490.224 610.637 612.042 504.693 762.464 504.693C912.885 504.693 1034.7 610.637 1034.7 741.183Z" stroke="white"/>
<path d="M944.31 741.183C944.31 828.35 862.963 899.128 762.465 899.128C661.966 899.128 580.619 828.35 580.619 741.183C580.619 654.016 661.966 583.238 762.465 583.238C862.963 583.238 944.31 654.016 944.31 741.183Z" stroke="white"/>
<path d="M871.987 741.183C871.987 793.642 823.021 836.285 762.465 836.285C701.908 836.285 652.942 793.642 652.942 741.183C652.942 688.723 701.908 646.081 762.465 646.081C823.021 646.081 871.987 688.723 871.987 741.183Z" stroke="white"/>
</g>
<path fill-rule="evenodd" clip-rule="evenodd" d="M446.642 106.403C443.403 108.607 419.036 154.601 360.714 268.611C345.423 298.5 329.048 329.942 324.322 338.482C319.596 347.022 292.986 398.726 265.187 453.38C237.391 508.035 213.635 554.149 212.399 555.857C211.16 557.565 193.018 592.5 172.079 633.491C151.139 674.482 128.768 717.802 122.362 729.757C115.955 741.713 93.5906 785.033 72.6636 826.023C51.7366 867.014 28.2849 912.43 20.5463 926.948C-12.3705 988.713 -15.1156 996.266 -7.42056 1003.96C-1.56074 1009.82 201.07 1009.25 205.958 1003.36C209.377 999.234 230.543 956.933 244.191 926.948C268.422 873.716 277.599 856.208 282.21 854.441C285.108 853.329 311.599 852.419 341.085 852.419C404.114 852.419 402.077 853.462 407.757 818.26C412.322 789.967 419.082 751.054 425.482 716.268C429.923 692.133 429.883 689.95 424.892 684.438C420.818 679.938 415.3 678.519 401.866 678.519C388.693 678.519 382.889 677.075 379.057 672.839C370.238 663.095 370.586 662.039 409.269 581.29C420.57 557.702 429.814 537.924 429.814 537.337C429.814 536.75 440.329 514.404 453.182 487.682C477.562 436.993 492.856 404.496 507.579 372.1C519.457 345.969 531.208 340.842 543.971 356.22C546.775 359.598 560.218 493.955 571.956 635.932C575.294 676.295 573.493 678.519 537.421 678.519C521.659 678.519 509.777 680.019 506.66 682.401C501.16 686.602 494.999 716.395 479.009 816.124C473.289 851.789 471.681 850.696 531.437 851.717C574.866 852.463 581.797 853.282 586.253 858.211C591.355 863.844 592.243 870.197 600.867 962.659C602.78 983.155 605.77 1001.67 607.516 1003.81C609.947 1006.78 637.544 1007.69 726.162 1007.69C856.28 1007.69 854.249 1008.02 851.1 987.251C850.088 980.559 847.821 961.107 846.066 944.027C844.312 926.948 841.473 904.589 839.756 894.341C835.955 871.644 824.658 780.496 820.9 742.179C819.391 726.807 816.699 705.147 814.92 694.046C811.047 669.886 800.359 585.92 794.567 534.12C788.599 480.769 781.351 422.584 777.633 398.189C775.873 386.621 772.416 359.372 769.957 337.634C760.302 252.364 755.489 213.134 751.396 186.319C749.049 170.948 746.17 148.589 744.999 136.633C741.531 101.179 754.908 104.021 591.588 104.074C513.715 104.102 448.49 105.148 446.642 106.403Z" fill="white"/>
</g>
<defs>
<linearGradient id="paint0_linear_62_337" x1="230" y1="27.5" x2="504" y2="928.258" gradientUnits="userSpaceOnUse">
<stop offset="0.295443" stop-color="#41837F"/>
<stop offset="1" stop-color="#00AAA0"/>
</linearGradient>
</defs>
</svg>
