<svg width="100" height="26" viewBox="0 0 100 26" fill="none" xmlns="http://www.w3.org/2000/svg">
<path fill-rule="evenodd" clip-rule="evenodd" d="M3.43026 2.89226C3.35047 3.12849 2.99764 4.93694 2.99764 5.10959C2.99764 5.21194 2.9637 5.35656 2.9223 5.4309C2.88081 5.50523 2.81332 5.8112 2.7723 6.11088C2.73128 6.41055 2.60472 7.09356 2.49108 7.62869C2.21499 8.92856 2.21048 8.83119 2.54743 8.85913C2.80982 8.88092 2.8408 8.86286 2.88096 8.66454C2.90533 8.54436 2.95577 8.34089 2.9932 8.21246C3.03057 8.08403 3.12304 7.62869 3.19869 7.20059C3.27435 6.77249 3.36947 6.37848 3.41002 6.32493C3.4624 6.25581 3.77881 6.22763 4.50292 6.22763C5.65514 6.22763 6.05483 6.1273 6.49032 5.72846C6.87608 5.37532 7.04141 4.95944 7.04343 4.33698C7.04561 3.65824 6.87087 3.2988 6.41101 3.03625C6.09429 2.85544 5.98727 2.84104 4.76897 2.81496C3.72526 2.7927 3.45874 2.80811 3.43026 2.89226ZM8.71396 2.88821C8.67878 2.94518 8.62499 3.13308 8.5944 3.30588C8.45554 4.09008 8.28594 4.97306 8.21254 5.29359C8.13345 5.6388 7.99778 6.32827 7.78373 7.47302C7.49621 9.01052 7.492 8.87407 7.82693 8.87407C8.10886 8.87407 8.1828 8.76534 8.27644 8.21246C8.47788 7.02382 8.59386 6.41195 8.64017 6.29371C8.78611 5.9208 10.3344 6.0293 10.7197 6.43942C10.8602 6.5891 10.8962 6.75217 10.9434 7.45402C11.03 8.73918 11.0825 8.87057 11.511 8.87291C11.7223 8.874 11.7319 8.85998 11.6832 8.6211C11.6549 8.48193 11.6097 7.96743 11.5829 7.47776L11.5343 6.58731L11.1968 6.24981L10.8593 5.91239L11.0589 5.8365C11.1686 5.79478 11.292 5.76061 11.3329 5.76061C11.3739 5.76061 11.5637 5.61654 11.7547 5.44047C12.1303 5.09433 12.259 4.77878 12.2597 4.20263C12.2603 3.72417 12.0432 3.35359 11.6008 3.07797C11.2385 2.85225 11.2034 2.84649 10.0041 2.81598C9.04173 2.79146 8.76416 2.80702 8.71396 2.88821ZM15.5763 2.85871C15.0156 3.00224 14.2361 3.64626 13.8892 4.2526C13.5099 4.91538 13.3941 5.39525 13.3937 6.30547C13.3934 7.07504 13.4084 7.15303 13.6515 7.64161C13.9526 8.24671 14.1017 8.40153 14.6455 8.67364C14.9814 8.84177 15.1524 8.87407 15.7063 8.87407C16.4168 8.87407 16.7179 8.78604 17.3253 8.40075C17.805 8.09649 18.4761 7.15155 18.4845 6.76859C18.486 6.7022 18.5304 6.60467 18.5832 6.55182C18.6493 6.48581 18.6797 6.14606 18.6805 5.466C18.6816 4.53756 18.6682 4.44875 18.463 4.03077C18.2366 3.56975 17.8032 3.13581 17.358 2.92456C17.1098 2.80679 15.947 2.76375 15.5763 2.85871ZM22.2233 2.85007C21.4573 3.1246 20.7901 3.69646 20.4535 4.36687C20.0789 5.11301 20.0048 5.4488 20.0085 6.3833C20.0117 7.19607 20.0317 7.31913 20.2257 7.72069C20.4554 8.19627 20.8505 8.59526 21.2616 8.76705C21.4025 8.82589 21.7827 8.87407 22.1066 8.87407C22.812 8.87407 23.2804 8.67326 23.7264 8.17962C23.8841 8.00503 24.0355 7.8622 24.0629 7.8622C24.0903 7.8622 24.0907 8.05072 24.0636 8.28111C24.0257 8.60289 24.0413 8.72237 24.1307 8.79655C24.3034 8.93992 24.4513 8.77958 24.5089 8.38635C24.5355 8.20507 24.6115 7.77658 24.6778 7.4341C24.7441 7.09162 24.8328 6.62475 24.875 6.39661C24.9171 6.16855 24.9595 5.94088 24.969 5.89068C24.9815 5.8256 24.6925 5.7933 23.9591 5.77781C22.9826 5.75719 22.9273 5.76427 22.8439 5.9201C22.6791 6.22818 22.7933 6.30446 23.4076 6.29644C24.3256 6.28445 24.2734 6.26515 24.2202 6.59782C24.0619 7.58743 23.1586 8.40705 22.2263 8.40705C21.038 8.40705 20.4344 7.39603 20.6599 5.78357C20.8049 4.74733 21.1911 4.05039 21.8848 3.57301C22.2317 3.33444 22.2995 3.31748 22.9264 3.31327C23.5379 3.30915 23.6212 3.32721 23.8717 3.51806C24.0228 3.63318 24.1907 3.83462 24.2451 3.96562C24.32 4.14659 24.393 4.20357 24.5483 4.20271C24.6609 4.20201 24.8055 4.168 24.8697 4.12705C25.0554 4.00882 24.6885 3.39165 24.2526 3.08887C23.9166 2.85552 23.8532 2.84081 23.1184 2.825C22.6903 2.81582 22.2875 2.82711 22.2233 2.85007ZM27.2321 2.89124C27.1857 2.94962 27.1239 3.19006 27.0947 3.42551C27.0656 3.66097 27.0103 3.95869 26.9719 4.08712C26.9336 4.21555 26.8466 4.63587 26.7787 5.02116C26.7109 5.40645 26.6186 5.88632 26.5737 6.08745C26.5287 6.28858 26.4622 6.63884 26.4258 6.86581C26.3894 7.09278 26.2909 7.61118 26.2067 8.01787C26.1226 8.42457 26.0696 8.78363 26.089 8.8157C26.1467 8.91112 26.557 8.88201 26.6373 8.77678C26.6781 8.7233 26.7726 8.32922 26.8473 7.90112C26.922 7.47302 27.0154 7.01518 27.055 6.88371C27.0946 6.75225 27.127 6.55291 27.127 6.44075C27.127 6.17961 27.2317 6.11788 27.7108 6.09679C28.328 6.06947 29.0381 6.21813 29.2089 6.41039C29.4288 6.65791 29.5399 7.13972 29.5399 7.84671C29.5399 8.70151 29.6129 8.87407 29.9746 8.87407H30.2575L30.2074 8.58219C30.1797 8.42169 30.1311 7.89131 30.0992 7.40366L30.0413 6.5171L29.7042 6.21798L29.3672 5.91893L29.5754 5.83977C29.6899 5.79626 29.8197 5.76061 29.8638 5.76061C30.0192 5.76061 30.3872 5.44319 30.5647 5.15598C30.8248 4.73535 30.8241 3.808 30.5637 3.44217C30.2191 2.95834 29.8835 2.85559 28.5255 2.81831C27.567 2.792 27.2989 2.8071 27.2321 2.89124ZM34.4614 2.90012C34.4179 2.95367 34.2789 3.19006 34.1524 3.42551C33.5722 4.5055 33.2216 5.15419 32.848 5.83845C32.6259 6.24514 32.2943 6.85811 32.111 7.20059C31.9278 7.54307 31.6598 8.03655 31.5154 8.29715C31.3711 8.55775 31.2762 8.79421 31.3045 8.82255C31.3927 8.91066 31.774 8.87906 31.8579 8.77678C31.9018 8.7233 32.0842 8.39927 32.2632 8.05679C32.4422 7.71431 32.612 7.40966 32.6405 7.37977C32.6936 7.32411 35.1269 7.27313 35.1782 7.3266C35.1938 7.34295 35.2485 7.63647 35.2998 7.97895C35.4191 8.77483 35.4526 8.83516 35.7753 8.83516C35.9933 8.83516 36.0362 8.80799 36.0217 8.67948C35.9636 8.16701 35.838 7.30162 35.773 6.96708C35.7315 6.75303 35.6412 6.1926 35.5724 5.72169C35.5036 5.25078 35.4163 4.7429 35.3783 4.59306C35.3404 4.44323 35.2848 4.05794 35.2549 3.73686C35.1778 2.9093 35.1266 2.80282 34.8053 2.80282C34.6597 2.80282 34.505 2.84664 34.4614 2.90012ZM38.3027 2.97795C38.2831 3.07424 38.2502 3.24065 38.2296 3.34768C38.1951 3.52662 37.9975 4.48884 37.7833 5.52049C37.7352 5.75228 37.6681 6.12006 37.6341 6.33777C37.6001 6.55548 37.4808 7.18268 37.3689 7.73151C37.2571 8.28041 37.1856 8.76199 37.2102 8.80176C37.2754 8.90715 37.6029 8.89019 37.694 8.77678C37.737 8.7233 37.7917 8.55689 37.8155 8.40705C37.8394 8.25722 37.895 7.95949 37.9392 7.74544C38.163 6.65962 38.279 6.05055 38.3763 5.44926C38.5609 4.30896 38.6206 4.0433 38.7129 3.95099C38.7621 3.90172 38.8025 3.89074 38.8025 3.92655C38.8025 3.96235 38.8703 4.41591 38.9532 4.93453C39.1293 6.03639 39.4258 7.98183 39.4943 8.48489C39.5413 8.83041 39.546 8.83516 39.8384 8.83516C40.1781 8.83516 40.0457 9.04804 41.7006 5.83845C42.175 4.91803 42.6012 4.10363 42.6475 4.02875C42.7804 3.81384 42.8674 3.86965 42.8096 4.13266C42.7806 4.26467 42.7116 4.62373 42.6562 4.93048C42.6008 5.23724 42.4843 5.82093 42.3973 6.22763C42.0419 7.88936 41.9042 8.73778 41.9779 8.81149C42.019 8.85259 42.152 8.87477 42.2734 8.86069C42.5179 8.83243 42.5167 8.83578 42.7401 7.62869C42.8074 7.2648 42.8897 6.82697 42.9229 6.65573C42.9561 6.48449 43.026 6.11671 43.0783 5.83845C43.1306 5.56018 43.2046 5.22743 43.2427 5.099C43.2808 4.97057 43.3354 4.65533 43.3641 4.39847C43.3927 4.14161 43.442 3.87891 43.4736 3.8147C43.5051 3.75048 43.5554 3.49658 43.5853 3.25038L43.6395 2.80282H43.2153C42.9686 2.80282 42.7593 2.84353 42.715 2.90012C42.6428 2.99235 42.4039 3.44746 40.7849 6.57789C40.4085 7.30567 40.0886 7.91567 40.0742 7.93357C39.9723 8.05905 39.8667 7.52415 39.6608 5.83845C39.6163 5.47456 39.5467 5.0017 39.5061 4.78765C39.4656 4.5736 39.3943 4.09109 39.3477 3.71545C39.2317 2.77893 39.2471 2.80282 38.7567 2.80282C38.3854 2.80282 38.3344 2.82251 38.3027 2.97795ZM46.9277 2.86237C46.8802 2.89381 46.7181 3.14725 46.5674 3.42551C45.964 4.5406 45.2289 5.89402 45.0669 6.18848C44.9726 6.35987 44.7186 6.83281 44.5024 7.23951C44.2862 7.6462 44.0191 8.13657 43.9087 8.32922C43.6333 8.80986 43.6454 8.88863 43.9895 8.85928C44.2592 8.83632 44.289 8.80386 44.6099 8.18421C44.7953 7.82624 44.9874 7.48469 45.0367 7.4253C45.1063 7.34139 45.4064 7.31734 46.3838 7.31734H47.6414L47.7383 8.02815C47.7915 8.41912 47.8538 8.76938 47.8768 8.80651C47.9279 8.88925 48.3542 8.89665 48.4008 8.8157C48.4407 8.74642 48.3338 7.75198 48.2272 7.20059C48.1858 6.98654 48.0953 6.44363 48.0261 5.99412C47.9569 5.54461 47.8671 5.0017 47.8266 4.78765C47.7861 4.5736 47.7192 4.13204 47.6779 3.80645C47.5722 2.97468 47.4954 2.80259 47.2302 2.80399C47.1114 2.80469 46.9753 2.83092 46.9277 2.86237ZM17.2417 3.47953C17.8914 3.84505 18.1973 4.78368 18.028 5.89153C17.9767 6.22623 17.9064 6.57011 17.8715 6.65573C17.635 7.23694 17.5189 7.43573 17.2391 7.73929C16.8297 8.18343 16.3518 8.40705 15.8121 8.40705C15.1178 8.40705 14.6713 8.16677 14.2933 7.58977C14.0977 7.29119 14.0896 7.23538 14.0956 6.22763C14.1016 5.21171 14.1099 5.16096 14.3443 4.69791C14.7338 3.92873 15.1879 3.49167 15.7628 3.33289C16.1185 3.23466 16.9537 3.31748 17.2417 3.47953ZM6.00143 3.46155C6.26631 3.59893 6.49258 3.99707 6.49702 4.33363C6.50107 4.64023 6.26226 5.20719 6.04852 5.39828C5.7557 5.66012 5.3283 5.75368 4.40851 5.75719L3.52319 5.76061L3.56694 5.35197C3.62026 4.85311 3.88871 3.55799 3.96398 3.43618C4.04937 3.2981 5.72667 3.31903 6.00143 3.46155ZM11.2094 3.49557C11.5048 3.66821 11.6361 3.9246 11.632 4.32063C11.6271 4.7889 11.4713 5.1524 11.1962 5.33734C10.8222 5.58867 10.1138 5.71142 9.4148 5.64596L8.81694 5.58992L8.87072 5.1148C8.9003 4.85343 8.95261 4.58536 8.98693 4.51904C9.02126 4.45272 9.07481 4.18831 9.10587 3.93145C9.13684 3.67459 9.17833 3.4382 9.19802 3.40605C9.21764 3.37391 9.62574 3.35025 10.1048 3.35336C10.7869 3.3578 11.0266 3.3887 11.2094 3.49557ZM29.6759 3.4663C30.0224 3.63917 30.1627 3.90141 30.1623 4.37629C30.162 4.83202 29.976 5.22136 29.6839 5.37766C29.1986 5.6374 28.4542 5.73368 27.7147 5.63234L27.3466 5.5819L27.3817 5.26261C27.4244 4.87296 27.5668 4.12519 27.6835 3.67848L27.7699 3.34768H28.604C29.1953 3.34768 29.5074 3.38224 29.6759 3.4663ZM34.7082 3.91199C34.7291 4.05116 34.8029 4.56777 34.8721 5.06008C34.9413 5.5524 35.0359 6.10597 35.0823 6.29029C35.132 6.48753 35.1381 6.65394 35.097 6.69481C35.0588 6.73302 34.572 6.76961 34.0155 6.77607C33.1244 6.78634 33.0064 6.7728 33.0267 6.66258C33.0394 6.59377 33.2106 6.23137 33.4072 5.85713C33.6038 5.48297 33.9407 4.83529 34.1559 4.41793C34.371 4.00057 34.5748 3.65902 34.6086 3.65902C34.6424 3.65902 34.6872 3.77282 34.7082 3.91199ZM47.3147 5.21926C47.4277 6.01319 47.5202 6.68749 47.5202 6.71761C47.5202 6.74781 47.0473 6.77249 46.4694 6.77249C45.7579 6.77249 45.4186 6.74485 45.4186 6.68694C45.4186 6.63993 45.6176 6.22841 45.8608 5.77236C46.104 5.3164 46.4283 4.69814 46.5816 4.39847C46.9456 3.68681 46.9821 3.63334 47.051 3.71063C47.083 3.74643 47.2016 4.42532 47.3147 5.21926Z" fill="#63686E"/>
<path fill-rule="evenodd" clip-rule="evenodd" d="M2.10093 12.068C2.07236 12.1142 2.01788 12.3339 1.97982 12.5562C1.83053 13.4286 1.46905 15.3455 1.36055 15.8404C1.27392 16.2353 1.08236 17.2156 0.934627 18.0199C0.871658 18.3623 0.782613 18.8177 0.736689 19.0317C0.690765 19.2458 0.609348 19.6836 0.555719 20.0047C0.502167 20.3258 0.436785 20.641 0.410398 20.7052C0.384012 20.7694 0.327113 21.0496 0.283914 21.3279C0.240637 21.6062 0.172296 21.9854 0.131977 22.1706C0.0788143 22.4146 0.0836402 22.5171 0.149412 22.5424C0.199305 22.5615 0.833829 22.5675 1.55934 22.5558L2.87844 22.5344L2.94118 22.223C2.97566 22.0518 3.03754 21.7541 3.07856 21.5614C3.11966 21.3688 3.19025 20.966 3.2354 20.6663C3.28062 20.3666 3.35075 20.0606 3.39115 19.9863C3.43162 19.912 3.46556 19.7368 3.46657 19.5971C3.46758 19.4574 3.50355 19.203 3.54643 19.0317C3.65611 18.5942 3.89179 17.3979 4.12912 16.0739C4.19045 15.7315 4.27841 15.2936 4.32441 15.101C4.37041 14.9083 4.45977 14.4705 4.52297 14.128C4.58617 13.7855 4.68674 13.2426 4.74644 12.9216C4.80614 12.6005 4.86623 12.2677 4.87985 12.1821C4.90383 12.032 4.85526 12.0257 3.52876 12.0052C2.60632 11.9909 2.13572 12.0116 2.10093 12.068ZM7.15961 12.2016C7.13524 12.3193 7.08348 12.5382 7.04456 12.688C7.00557 12.8379 6.95778 13.0656 6.93824 13.194C6.9187 13.3224 6.8453 13.7252 6.77517 14.0891C6.70496 14.453 6.5984 15.0134 6.53839 15.3345C6.4783 15.6556 6.39541 16.0759 6.35408 16.2685C6.27211 16.6509 6.09044 17.5886 5.90932 18.5647C5.84573 18.9072 5.76057 19.345 5.7201 19.5377C5.67954 19.7303 5.59961 20.1506 5.54247 20.4717C5.48534 20.7928 5.41739 21.108 5.39147 21.1722C5.36555 21.2364 5.32251 21.4641 5.29573 21.6782C5.26896 21.8922 5.22724 22.1821 5.20303 22.3223L5.15905 22.5773L6.39089 22.5559L7.62273 22.5344L7.68835 22.2619C7.72439 22.1121 7.80736 21.7093 7.87267 21.3668C7.93797 21.0243 8.02359 20.5865 8.06306 20.3939C8.10244 20.2012 8.18868 19.7459 8.25469 19.382C8.48656 18.1038 8.59328 17.55 8.66722 17.2415C8.74568 16.9144 8.91326 16.1118 8.91326 16.0634C8.91326 16.0478 8.94347 16.035 8.98044 16.035C9.01741 16.035 9.10762 16.2365 9.18102 16.4826C9.25434 16.7287 9.34534 17.0002 9.38324 17.0858C9.42115 17.1714 9.5091 17.4341 9.57885 17.6696C9.64851 17.905 9.73475 18.1677 9.77048 18.2534C9.80621 18.339 9.89634 18.6192 9.97091 18.8761C10.0454 19.1329 10.1316 19.3781 10.1625 19.4209C10.1933 19.4637 10.2445 19.6202 10.2763 19.7686C10.3081 19.917 10.362 20.0922 10.3961 20.1578C10.4301 20.2234 10.6221 20.7937 10.8226 21.4252L11.1872 22.5733H12.6174C14.0386 22.5733 14.0478 22.5722 14.0811 22.3982C14.2208 21.6703 14.3067 21.2453 14.3683 20.9776C14.4077 20.8064 14.4733 20.4736 14.5141 20.2382C14.6192 19.6306 14.8111 18.6321 14.9105 18.1755C14.9571 17.9615 15.0454 17.5149 15.1066 17.1831C15.2673 16.3131 15.4536 15.3438 15.5291 14.9842C15.7911 13.7388 16.064 12.1137 16.0228 12.0459C16.0032 12.0137 15.463 11.9875 14.8223 11.9875H13.6574L13.5753 12.2016C13.5301 12.3193 13.4406 12.7133 13.3763 13.0772C13.3121 13.4411 13.2269 13.8965 13.187 14.0891C13.1471 14.2818 13.0599 14.7371 12.9932 15.101C12.6989 16.707 12.6528 16.9512 12.5764 17.3077C12.4245 18.0167 12.3268 18.3121 12.2668 18.2438C12.2338 18.2063 12.146 17.9654 12.0716 17.7085C11.9231 17.1956 11.8118 16.8574 11.713 16.6188C11.6776 16.5332 11.5734 16.2004 11.4816 15.8793C11.3067 15.2676 11.1982 14.9332 11.0904 14.6729C11.0549 14.5873 10.9509 14.2545 10.8592 13.9334C10.7675 13.6124 10.6613 13.2796 10.6232 13.194C10.585 13.1084 10.4966 12.8457 10.4267 12.6102C10.3567 12.3748 10.2865 12.1384 10.2705 12.0848C10.2485 12.0113 9.87019 11.9875 8.72256 11.9875H7.20382L7.15961 12.2016ZM17.8235 12.0848C17.8037 12.1384 17.7551 12.3923 17.7154 12.6491C17.6758 12.906 17.594 13.3352 17.5336 13.6028C17.4732 13.8705 17.4412 14.1069 17.4625 14.1282C17.4838 14.1495 18.0778 14.1669 18.7825 14.1669H20.0637L20.0174 14.5367C19.992 14.74 19.9167 15.1866 19.8501 15.5291C19.7835 15.8716 19.6765 16.432 19.6123 16.7745C19.5481 17.1169 19.4621 17.5548 19.4212 17.7474C19.3803 17.9401 19.2944 18.3779 19.2303 18.7204C18.9864 20.0242 18.8743 20.6 18.7987 20.9387C18.7295 21.249 18.4876 22.5033 18.4872 22.5538C18.4872 22.5645 19.1161 22.5733 19.8847 22.5733H21.2822L21.329 22.2814C21.3547 22.1209 21.3924 21.9195 21.4128 21.8338C21.4331 21.7482 21.5041 21.3804 21.5704 21.0166C21.6367 20.6527 21.7222 20.2148 21.7603 20.0436C21.8397 19.6867 22.0043 18.861 22.187 17.9031C22.2565 17.5392 22.3429 17.1014 22.379 16.9301C22.4714 16.4922 22.683 15.3824 22.7798 14.8286C22.8247 14.5717 22.8972 14.3178 22.941 14.2642C22.9989 14.1936 23.3705 14.1669 24.2974 14.1669H25.5742L25.6501 13.9673C25.6918 13.8575 25.726 13.6626 25.726 13.5341C25.726 13.4056 25.7574 13.2415 25.7958 13.1694C25.8342 13.0973 25.8908 12.8018 25.9216 12.5129L25.9776 11.9875H21.9186C18.7425 11.9875 17.8517 12.0087 17.8235 12.0848ZM27.7145 12.084C27.6974 12.138 27.6649 12.2872 27.6422 12.4156C27.6196 12.544 27.5672 12.8067 27.5258 12.9994C27.4467 13.3676 27.2764 14.2509 27.083 15.2956C27.0197 15.6381 26.9344 16.0759 26.8935 16.2685C26.8526 16.4612 26.7667 16.899 26.7027 17.2415C26.4541 18.5699 26.3462 19.1226 26.27 19.4598C26.2263 19.6525 26.1404 20.0903 26.079 20.4328C25.8424 21.7524 25.7409 22.3051 25.7145 22.4176C25.6905 22.52 26.1499 22.5369 29.434 22.5546L33.1811 22.5748L33.2249 22.3211C33.2632 22.0997 33.4273 21.2638 33.5614 20.6079L33.6051 20.3939H31.2677C28.7709 20.3939 28.8063 20.3997 28.9263 20.0062C28.9592 19.8984 29.0264 19.5824 29.0757 19.3042C29.1249 19.0259 29.1888 18.6756 29.2176 18.5258L29.2701 18.2534L30.8752 18.2323C32.4615 18.2116 32.4809 18.2093 32.5269 18.0378C32.5525 17.9423 32.5739 17.7699 32.5745 17.6547C32.5751 17.5395 32.6065 17.4262 32.6442 17.4028C32.6988 17.3691 32.8262 16.6222 32.8444 16.2296C32.8466 16.1814 32.255 16.137 31.2913 16.1129L29.7345 16.0739L29.7496 15.8793C29.7579 15.7723 29.8037 15.5096 29.8512 15.2956C29.8989 15.0815 29.9575 14.7838 29.9816 14.634C30.0057 14.4841 30.0606 14.3178 30.1036 14.2642C30.1627 14.1906 30.7073 14.1669 32.3421 14.1669C33.9773 14.1669 34.5212 14.1433 34.5796 14.0696C34.6221 14.0162 34.6782 13.8147 34.7043 13.6221C34.7303 13.4294 34.7911 13.0792 34.8394 12.8437C34.8876 12.6083 34.9322 12.3281 34.9384 12.221L34.9496 12.0264L31.3475 12.0062C28.5047 11.9902 27.7389 12.0067 27.7145 12.084ZM36.9752 12.1237C36.9456 12.1986 36.892 12.4176 36.8559 12.6102C36.8199 12.8029 36.7333 13.2582 36.6636 13.6221C36.5938 13.986 36.4879 14.5464 36.428 14.8675C36.3682 15.1885 36.2797 15.6439 36.2313 15.8793C36.0763 16.633 35.9198 17.4617 35.8418 17.942C35.8001 18.1989 35.7454 18.4616 35.7202 18.5258C35.695 18.59 35.6433 18.8177 35.6052 19.0317C35.4984 19.6326 35.3181 20.6022 35.1854 21.289C35.1193 21.6315 35.0433 22.0614 35.0165 22.2444L34.9679 22.5769L36.3585 22.5557L37.7492 22.5344L37.8081 22.223C37.8406 22.0518 37.8999 21.7541 37.9398 21.5614C38.0462 21.0489 38.2407 20.04 38.3447 19.4598C38.3947 19.1816 38.4729 18.9065 38.5185 18.8486C38.5817 18.7683 38.8002 18.75 39.4372 18.7718C40.1346 18.7956 40.3089 18.8273 40.4902 18.9627C40.7998 19.1938 40.95 19.6946 41.0142 20.7097C41.0645 21.5044 41.2043 22.2886 41.3327 22.4964C41.3611 22.5423 41.9306 22.5733 42.7462 22.5733C44.0152 22.5733 44.1083 22.5636 44.0593 22.4371C43.9501 22.1555 43.8464 21.5766 43.7767 20.8609C43.6344 19.3989 43.4571 18.6574 43.1743 18.3424C43.103 18.2629 42.9133 18.1308 42.7527 18.0489C42.5922 17.967 42.4608 17.8683 42.4608 17.8297C42.4608 17.7911 42.5922 17.717 42.7527 17.665C43.6377 17.3785 44.2991 16.8658 44.5882 16.2421C45.1569 15.0154 44.9604 13.6993 44.0864 12.8819C43.2473 12.0969 42.6855 11.9875 39.4919 11.9875C37.2185 11.9875 37.0248 11.998 36.9752 12.1237ZM41.4938 14.2366C41.9318 14.4356 42.1055 14.8102 42.049 15.4337C42.0168 15.7891 41.9547 15.9612 41.7822 16.1744C41.4052 16.6402 41.1518 16.7222 40.009 16.7478L38.9971 16.7705L38.973 16.5643C38.9598 16.451 38.9882 16.1716 39.0362 15.9436C39.1377 15.461 39.2422 14.9415 39.3153 14.5561C39.4002 14.1082 39.443 14.0889 40.3493 14.0908C40.9855 14.0921 41.2498 14.1258 41.4938 14.2366ZM45.6189 22.1256C45.5851 22.2432 45.5849 22.4008 45.6185 22.4758C45.6721 22.5956 45.6833 22.5909 45.7101 22.4371C45.727 22.3407 45.7272 22.1832 45.7105 22.0868C45.682 21.9221 45.6766 21.9244 45.6189 22.1256Z" fill="#42454A"/>
<path fill-rule="evenodd" clip-rule="evenodd" d="M57.0488 0.06023C56.9676 0.115494 56.3568 1.26833 54.895 4.12602C54.5117 4.8752 54.1013 5.66329 53.9828 5.87735C53.8644 6.0914 53.1974 7.38737 52.5006 8.7573C51.8039 10.1272 51.2084 11.2831 51.1774 11.3259C51.1464 11.3687 50.6917 12.2444 50.1668 13.2718C49.642 14.2993 49.0812 15.3851 48.9207 15.6848C48.7601 15.9844 48.1995 17.0702 47.675 18.0977C47.1504 19.1251 46.5626 20.2635 46.3686 20.6274C45.5436 22.1755 45.4748 22.3648 45.6676 22.5577C45.8145 22.7046 50.8935 22.6902 51.016 22.5425C51.1017 22.4393 51.6322 21.379 51.9743 20.6274C52.5817 19.2931 52.8117 18.8543 52.9273 18.81C52.9999 18.7821 53.6639 18.7593 54.403 18.7593C55.9828 18.7593 55.9318 18.7854 56.0741 17.9031C56.1886 17.1939 56.358 16.2186 56.5184 15.3466C56.6297 14.7417 56.6287 14.687 56.5036 14.5488C56.4015 14.436 56.2632 14.4004 55.9265 14.4004C55.5963 14.4004 55.4508 14.3643 55.3548 14.2581C55.1337 14.0138 55.1424 13.9874 56.1121 11.9634C56.3953 11.3721 56.627 10.8764 56.627 10.8617C56.627 10.847 56.8906 10.2869 57.2127 9.61708C57.8238 8.34655 58.2072 7.53199 58.5762 6.72C58.8739 6.06501 59.1685 5.9365 59.4884 6.32195C59.5587 6.40663 59.8956 9.77431 60.1898 13.333C60.2735 14.3447 60.2284 14.4004 59.3242 14.4004C58.9291 14.4004 58.6313 14.438 58.5532 14.4977C58.4153 14.6031 58.2609 15.3498 57.8601 17.8495C57.7167 18.7435 57.6764 18.7161 59.1742 18.7417C60.2628 18.7604 60.4365 18.7809 60.5482 18.9045C60.6761 19.0457 60.6983 19.2049 60.9145 21.5225C60.9624 22.0362 61.0374 22.5004 61.0811 22.5538C61.1421 22.6285 61.8338 22.6511 64.055 22.6511C67.3165 22.6511 67.2656 22.6595 67.1866 22.1389C67.1613 21.9711 67.1044 21.4836 67.0605 21.0555C67.0165 20.6274 66.9453 20.0669 66.9023 19.8101C66.807 19.2412 66.5239 16.9565 66.4297 15.9961C66.3918 15.6108 66.3244 15.0679 66.2798 14.7896C66.1827 14.1841 65.9148 12.0794 65.7696 10.781C65.62 9.44382 65.4384 7.98539 65.3452 7.37391C65.3011 7.08397 65.2144 6.40095 65.1528 5.8561C64.9108 3.71878 64.7901 2.73547 64.6875 2.06335C64.6287 1.67806 64.5565 1.11764 64.5272 0.817969C64.4403 -0.070691 64.7756 0.000529403 60.6819 0.00185262C58.73 0.00255315 57.0951 0.0287841 57.0488 0.06023Z" fill="#41837F"/>
<path fill-rule="evenodd" clip-rule="evenodd" d="M82.7413 8.98311C82.3054 9.20572 81.9777 9.63849 81.6936 10.3668C81.4298 11.0435 81.4601 11.0883 82.1995 11.1147C82.8055 11.1364 82.83 11.1302 83.0499 10.9007C83.1745 10.7707 83.3428 10.6643 83.4242 10.6643C83.5054 10.6643 83.8208 10.7869 84.1249 10.9367C85.4695 11.5991 86.4892 11.0845 87.0174 9.47706C87.0983 9.23079 87.1394 9.00413 87.1087 8.97338C87.0343 8.89905 86.0222 8.84448 85.7914 8.90239C85.6911 8.92754 85.5701 9.03355 85.5226 9.13785C85.3777 9.45589 85.1691 9.4569 84.5527 9.14275C83.7913 8.75474 83.2772 8.70944 82.7413 8.98311ZM72.2334 11.9036C71.2271 12.0672 70.2863 12.5649 69.5036 13.3477C69.1983 13.6529 68.8932 14.0059 68.8255 14.1321C68.4796 14.7774 68.2327 15.3424 68.1133 15.7626C68.0402 16.0195 67.9411 16.3646 67.8929 16.5296C67.8447 16.6946 67.8034 17.3601 67.8011 18.0085C67.797 19.1121 67.8647 19.6389 68.0729 20.1214C68.1098 20.2071 68.1915 20.4066 68.2545 20.5647C68.3708 20.857 68.9807 21.7171 69.0717 21.7171C69.0991 21.7171 69.2127 21.8016 69.3242 21.905C69.6083 22.1685 70.2518 22.4811 70.7139 22.5802C70.9288 22.6263 71.1045 22.6874 71.1043 22.716C71.1041 22.7445 70.9114 23.0089 70.6762 23.3036C70.441 23.5983 70.2486 23.869 70.2486 23.9051C70.2486 23.9412 70.3396 24.0304 70.4508 24.1033C70.6215 24.2151 70.7039 24.2223 70.9762 24.1489C71.2351 24.0792 71.333 24.0837 71.4686 24.1717C71.7075 24.3268 71.7643 24.5681 71.6154 24.7955C71.518 24.944 71.4231 24.9862 71.1863 24.9862C71.0191 24.9862 70.8298 24.9337 70.7656 24.8695C70.7014 24.8053 70.6026 24.7527 70.546 24.7528C70.3267 24.753 69.6636 25.0539 69.6414 25.1634C69.6286 25.2268 69.7568 25.3975 69.9262 25.5426C70.6556 26.1669 71.8957 26.1309 72.5216 25.4671C72.8152 25.1557 73.0116 24.6134 72.9294 24.3407C72.7382 23.7057 72.457 23.4301 71.922 23.3528L71.6107 23.3078L71.8948 23.0184C72.1621 22.7461 72.2075 22.729 72.6612 22.729C73.7057 22.729 74.9522 22.1798 75.7385 21.3734C75.9671 21.1388 76.2677 20.7202 76.5087 20.301L76.7186 19.9356L75.9938 19.591C74.4063 18.836 74.3287 18.8121 74.2415 19.0512C74.1118 19.4065 73.6489 20.018 73.3841 20.1837C72.9646 20.4463 72.4618 20.5531 72.0388 20.4698C71.8461 20.4318 71.6649 20.3992 71.6361 20.3973C71.5003 20.3885 71.0807 19.952 70.9313 19.6641C70.6446 19.1115 70.6461 17.4468 70.9344 16.3305C71.1605 15.4551 71.792 14.5295 72.3612 14.2392C72.7304 14.0508 73.5425 14.0358 73.8932 14.2108C74.2276 14.3775 74.5767 14.8215 74.6775 15.2077C74.8227 15.7648 74.7708 15.7615 76.1292 15.2985C77.5916 14.7999 77.5396 14.8886 76.9983 13.8167C76.6041 13.0361 75.8886 12.4338 74.9514 12.0936C74.5314 11.9412 74.2292 11.894 73.5208 11.8704C73.0268 11.8538 72.4474 11.8688 72.2334 11.9036ZM93.6308 11.9095C93.101 11.9871 92.7295 12.1116 92.1093 12.4191C90.7314 13.1023 89.7601 14.2819 89.1902 15.9639C88.9787 16.5881 88.9682 16.6844 88.9682 18.0199C88.9682 19.4587 88.9822 19.5463 89.3457 20.3939C89.6433 21.0875 90.4694 21.9256 91.2236 22.2992C91.8178 22.5935 92.2258 22.6747 93.2764 22.7078C94.4287 22.7441 94.9697 22.6334 95.9248 22.1659C96.9705 21.654 98.0261 20.5264 98.4578 19.4598C98.5359 19.2672 98.629 19.0395 98.6648 18.9539C98.7654 18.7133 98.9492 17.8541 99.052 17.1442C99.1642 16.3689 99.0611 15.5511 98.7347 14.6282C98.0135 12.589 96.0673 11.5522 93.6308 11.9095ZM82.1085 12.2405C82.0365 12.3796 81.7771 12.8814 81.5319 13.3555C81.2867 13.8297 81.0498 14.285 81.0054 14.3674C80.961 14.4498 80.848 14.6748 80.7543 14.8675C80.6607 15.0601 80.4341 15.498 80.2509 15.8404C80.0676 16.1829 79.5856 17.1111 79.1797 17.9031C78.7737 18.6951 78.1858 19.8334 77.8731 20.4328C76.9645 22.1747 76.8667 22.3732 76.8657 22.476C76.8649 22.5499 77.1725 22.5733 78.147 22.5733H79.4294L79.5973 22.2036C79.6897 22.0002 79.8618 21.6224 79.9799 21.364C80.0981 21.1055 80.2467 20.8509 80.3102 20.7981C80.3959 20.7269 80.8756 20.7076 82.1674 20.7232L83.9089 20.7441L83.9712 21.4057C84.0055 21.7696 84.0508 22.1812 84.072 22.3203L84.1105 22.5733H85.5508H86.9911L86.9444 22.0868C86.9187 21.8193 86.8656 21.3902 86.8263 21.1333C86.787 20.8765 86.7004 20.1934 86.6338 19.6155C86.5674 19.0376 86.4777 18.337 86.4347 18.0588C86.3915 17.7805 86.3223 17.2376 86.2808 16.8523C86.2019 16.1212 86.0164 14.595 85.8928 13.661C85.8532 13.3613 85.8001 12.941 85.7748 12.727C85.7495 12.5129 85.7127 12.259 85.693 12.1627L85.6572 11.9875H83.9483H82.2394L82.1085 12.2405ZM95.3795 14.2766C95.8984 14.6362 96.1681 15.387 96.1681 16.4722C96.1681 18.3087 95.4172 19.9394 94.3624 20.3931C93.3484 20.8293 92.339 20.4206 91.9642 19.4219C91.7061 18.7342 91.8192 16.8098 92.1683 15.9507C92.749 14.5214 93.431 13.9746 94.5533 14.0384C94.9653 14.0619 95.144 14.1134 95.3795 14.2766ZM83.4267 15.0037C83.4513 15.2927 83.5153 15.9494 83.569 16.4631C83.6226 16.9768 83.6684 17.6949 83.6709 18.0588L83.6754 18.7204H82.5078C81.4232 18.7204 81.342 18.7103 81.3643 18.5792C81.3775 18.5015 81.5749 18.0462 81.8028 17.5673C82.0308 17.0885 82.3822 16.3464 82.5835 15.9183C83.1581 14.6967 83.2711 14.4783 83.3284 14.4783C83.3579 14.4783 83.4022 14.7147 83.4267 15.0037Z" fill="#42454A"/>
</svg>
